<svg width="137" height="46" viewBox="0 0 137 46" fill="none" xmlns="http://www.w3.org/2000/svg">
<path d="M4.11855 45.8949C3.55513 45.9001 2.99689 45.7872 2.4797 45.5637C1.9835 45.3481 1.53557 45.0353 1.16243 44.6436C0.789289 44.2519 0.498508 43.7893 0.307312 43.2832C0.0989793 42.7355 -0.00509488 42.1536 0.000458805 41.5676C-0.00783372 40.9848 0.0963544 40.4059 0.307312 39.8625C0.500804 39.3688 0.795373 38.9211 1.17209 38.5479C1.54703 38.1836 1.99183 37.8989 2.4797 37.7111C3.00193 37.5077 3.55815 37.4059 4.11855 37.4112H8.71781V38.8931H4.11855C3.75966 38.8916 3.40406 38.9616 3.07246 39.0989C2.75387 39.228 2.46546 39.4216 2.22541 39.6677C1.98536 39.9137 1.79888 40.2068 1.67768 40.5285C1.54173 40.8822 1.4743 41.2585 1.47894 41.6373C1.47588 42.0161 1.54326 42.3921 1.67768 42.7462C1.79867 43.0732 1.98491 43.3722 2.22511 43.6249C2.46049 43.8727 2.74411 44.0697 3.0585 44.2038C3.38938 44.3438 3.7453 44.415 4.10459 44.413H8.70389V45.8949H4.11855Z" fill="#FF9000"/>
<path d="M17.3036 45.8949C16.739 45.9001 16.1796 45.7873 15.6612 45.5636C15.1713 45.3482 14.7283 45.039 14.3571 44.6536C13.9815 44.2581 13.6876 43.7924 13.4923 43.2832C13.2828 42.7357 13.1775 42.1538 13.182 41.5676C13.1748 40.9846 13.2802 40.4056 13.4923 39.8625C13.6858 39.3688 13.9804 38.921 14.3571 38.5479C14.7308 38.1837 15.1744 37.899 15.6612 37.711C16.1847 37.5078 16.7421 37.406 17.3036 37.4112H19.3678C19.9445 37.4045 20.5172 37.5074 21.0555 37.7145C21.5472 37.905 21.9938 38.1959 22.3666 38.5688C22.7395 38.9417 23.0305 39.3882 23.2209 39.8799C23.427 40.4185 23.5299 40.991 23.5243 41.5676C23.5287 42.1538 23.4235 42.7357 23.2139 43.2832C23.0186 43.7924 22.7248 44.2581 22.3492 44.6536C21.9761 45.04 21.5306 45.3492 21.0381 45.5636C20.5102 45.7882 19.9415 45.901 19.3678 45.8949H17.3036ZM19.3678 44.413C19.7363 44.4171 20.1018 44.3459 20.4418 44.2037C20.7609 44.0708 21.0493 43.8738 21.2891 43.6249C21.5315 43.3726 21.7202 43.0736 21.8436 42.7462C21.975 42.3914 22.0411 42.0157 22.0388 41.6373C22.042 41.26 21.9758 40.8854 21.8436 40.532C21.7228 40.2097 21.5365 39.9159 21.2964 39.6692C21.0563 39.4226 20.7677 39.2283 20.4488 39.0988C20.108 38.9596 19.7429 38.8896 19.3748 38.8931H17.3105C16.9516 38.891 16.5958 38.9609 16.2644 39.0988C15.9499 39.2282 15.6652 39.4204 15.4276 39.6637C15.1907 39.9137 15.0048 40.2074 14.8801 40.5285C14.7442 40.8822 14.6767 41.2585 14.6814 41.6373C14.6783 42.0161 14.7457 42.3921 14.8801 42.7462C15.0038 43.0719 15.1898 43.3703 15.4276 43.6249C15.6636 43.8736 15.9485 44.0707 16.2644 44.2037C16.5951 44.3444 16.9512 44.4156 17.3105 44.413H19.3678Z" fill="#FF9000"/>
<path d="M29.5993 39.6882V45.8949H28.2045V38.1922C28.192 37.9593 28.2652 37.7299 28.4103 37.5472C28.4787 37.468 28.5641 37.4053 28.66 37.3637C28.756 37.322 28.8601 37.3025 28.9647 37.3066C29.0731 37.3072 29.1801 37.331 29.2785 37.3763C29.3954 37.4362 29.5015 37.5151 29.5923 37.6099L35.5794 43.5377V37.3415H36.9742V45.1139C36.9894 45.3487 36.9174 45.5809 36.772 45.7659C36.7067 45.8421 36.6252 45.9026 36.5335 45.943C36.4418 45.9834 36.3421 46.0028 36.2419 45.9995C36.1103 45.9981 35.9805 45.9694 35.8605 45.9154C35.7405 45.8614 35.6329 45.7832 35.5445 45.6857L29.5993 39.6882Z" fill="#FF9000"/>
<path d="M44.6361 45.895V38.8931H41.4316V37.4182H49.3575V38.9001H46.1355V45.9019L44.6361 45.895Z" fill="#FF9000"/>
<path d="M61.6915 45.8949L59.5435 43.5377H56.3704V42.2301H59.9061C60.1277 42.2471 60.3504 42.2171 60.5595 42.1419C60.7686 42.0668 60.9595 41.9483 61.1196 41.7943C61.4129 41.4403 61.559 40.9871 61.5276 40.5285C61.5456 40.3051 61.5171 40.0803 61.4439 39.8684C61.3707 39.6566 61.2543 39.4622 61.1022 39.2976C60.7714 39.0121 60.3423 38.867 59.9061 38.8931H55.2859V45.8949H53.8145V37.4181H59.9061C60.3469 37.4117 60.7851 37.4849 61.1998 37.6343C61.5652 37.7648 61.8965 37.9757 62.1693 38.2516C62.4422 38.5274 62.6495 38.8611 62.7759 39.2279C62.9206 39.6399 62.9914 40.0743 62.9851 40.5111C63.0068 41.137 62.8469 41.7558 62.5248 42.2929C62.2221 42.7731 61.7701 43.1407 61.2381 43.339L63.7906 45.9158L61.6915 45.8949Z" fill="#FF9000"/>
<path d="M76.9136 45.895L75.6409 43.7609H71.6274L72.3248 42.5579H74.9261L73.0362 39.3848L69.2005 45.895H67.5059L72.3876 37.7739C72.4642 37.6384 72.5674 37.5197 72.691 37.4252C72.8139 37.3376 72.962 37.2924 73.1129 37.2961C73.2617 37.2913 73.408 37.3367 73.5278 37.4252C73.6483 37.521 73.749 37.6395 73.8242 37.7739L78.7059 45.895H76.9136Z" fill="#FF9000"/>
<path d="M85.8549 45.8949C85.2915 45.9001 84.7332 45.7872 84.216 45.5637C83.7198 45.3481 83.2719 45.0353 82.8988 44.6436C82.5256 44.2519 82.2348 43.7893 82.0436 43.2832C81.8353 42.7355 81.7312 42.1536 81.7368 41.5676C81.7285 40.9848 81.8327 40.4059 82.0436 39.8625C82.2371 39.3688 82.5317 38.9211 82.9084 38.5479C83.2833 38.1836 83.7281 37.8989 84.216 37.7111C84.7382 37.5077 85.2945 37.4059 85.8549 37.4112H90.4542V38.8931H85.8549C85.496 38.8916 85.1404 38.9616 84.8088 39.0989C84.4902 39.228 84.2018 39.4216 83.9618 39.6677C83.7217 39.9137 83.5352 40.2068 83.414 40.5285C83.2781 40.8822 83.2106 41.2585 83.2153 41.6373C83.2122 42.0161 83.2796 42.3921 83.414 42.7462C83.535 43.0732 83.7213 43.3722 83.9615 43.6249C84.1968 43.8727 84.4805 44.0697 84.7948 44.2038C85.1257 44.3438 85.4817 44.415 85.8409 44.413H90.4402V45.8949H85.8549Z" fill="#FF9000"/>
<path d="M97.8704 45.8949V38.8931H94.6484V37.4181H102.574V38.9001H99.3523V45.9019L97.8704 45.8949Z" fill="#FF9000"/>
<path d="M107.143 45.895V37.4182H108.625V45.9019L107.143 45.895Z" fill="#FF9000"/>
<path d="M115.053 39.6882V45.8949H113.64V38.1922C113.627 37.9597 113.699 37.7302 113.843 37.5472C113.911 37.468 113.996 37.4053 114.092 37.3637C114.188 37.322 114.292 37.3025 114.397 37.3066C114.507 37.3068 114.615 37.3306 114.714 37.3763C114.831 37.4362 114.937 37.5151 115.028 37.6099L121.015 43.5377V37.3415H122.41V45.1139C122.424 45.3491 122.351 45.5814 122.204 45.7659C122.139 45.8424 122.058 45.9032 121.966 45.9437C121.874 45.9842 121.775 46.0033 121.674 45.9995C121.546 45.9956 121.42 45.9658 121.304 45.9119C121.188 45.858 121.083 45.781 120.998 45.6857L115.053 39.6882Z" fill="#FF9000"/>
<path d="M131.241 45.8949C130.678 45.9001 130.119 45.7872 129.602 45.5637C129.106 45.3481 128.658 45.0353 128.285 44.6436C127.912 44.2519 127.621 43.7893 127.43 43.2832C127.22 42.7357 127.115 42.1538 127.119 41.5676C127.112 40.9846 127.218 40.4056 127.43 39.8625C127.623 39.3688 127.918 38.9211 128.295 38.5479C128.67 38.1836 129.114 37.8989 129.602 37.7111C130.124 37.5077 130.681 37.4059 131.241 37.4112H135.84V38.8931H131.241C130.882 38.8916 130.527 38.9616 130.195 39.0989C129.882 39.2283 129.598 39.4205 129.362 39.6637C129.122 39.9126 128.935 40.2066 128.811 40.5285C128.675 40.8822 128.607 41.2585 128.612 41.6373C128.609 42.0161 128.676 42.3921 128.811 42.7462C128.934 43.0728 129.122 43.3714 129.362 43.6249C129.596 43.8735 129.88 44.0706 130.195 44.2038C130.526 44.3438 130.882 44.415 131.241 44.413H134.881V42.2092H131.046V40.9574H136.367V45.8949H131.241Z" fill="#FF9000"/>
<path d="M35.7315 1.36308C34.0136 0.453342 32.0956 -0.0149974 30.1508 0.000366155H0.175781V29.6394H7.29057V19.9641H30.1508C32.0912 19.984 34.0071 19.5303 35.7315 18.6423C37.3645 17.8064 38.7454 16.5522 39.7327 15.0084C40.6964 13.5202 41.2109 11.7869 41.2149 10.0151C41.2189 8.2433 40.7124 6.5077 39.7555 5.01517C38.7627 3.46305 37.3739 2.20253 35.7315 1.36308V1.36308ZM32.8137 13.2142C31.8506 14.0166 30.6362 14.457 29.3815 14.4588H7.29057V5.55117H29.3587C29.9903 5.52015 30.6217 5.61459 31.2163 5.82902C31.811 6.04346 32.357 6.37361 32.8228 6.80032C33.2787 7.19937 33.6401 7.69445 33.881 8.24981C34.1219 8.80518 34.2362 9.40698 34.2157 10.0118C34.2254 10.6146 34.1052 11.2125 33.8633 11.765C33.6215 12.3175 33.2635 12.8116 32.8137 13.2142V13.2142Z" fill="#2A373D"/>
<path d="M87.4792 2.4731C85.6344 0.820661 83.1974 -0.0655527 80.6888 0.00378233H56.4577C53.9561 -0.0578979 51.5278 0.827595 49.6861 2.4731C48.8052 3.19776 48.1001 4.10247 47.621 5.12256C47.1419 6.14265 46.9008 7.25293 46.9148 8.37405V21.2654C46.8994 22.3849 47.1381 23.494 47.6139 24.5138C48.0896 25.5337 48.7907 26.4393 49.6673 27.1663C51.5146 28.815 53.9499 29.7006 56.4577 29.6356H80.6935C83.202 29.7049 85.639 28.8188 87.4839 27.1663C88.3642 26.4426 89.0676 25.5375 89.5429 24.5168C90.0182 23.4961 90.2536 22.3854 90.2318 21.2654V20.0035H82.9274C82.8996 20.5444 82.7614 21.0746 82.5207 21.5632C82.28 22.0519 81.9417 22.4891 81.5254 22.8495C80.5913 23.6365 79.4016 24.0785 78.1652 24.0978H59.0046C57.7757 24.1013 56.5871 23.6724 55.6586 22.8904C55.2015 22.5061 54.8351 22.0307 54.5843 21.4965C54.3334 20.9623 54.2042 20.3818 54.2052 19.7946V9.83566C54.1916 9.2528 54.313 8.67443 54.5605 8.1433C54.8081 7.61217 55.1753 7.14188 55.6352 6.76719C56.5512 5.94167 57.765 5.49974 59.014 5.53706H78.1185C78.7399 5.49817 79.3627 5.5868 79.9465 5.79718C80.5302 6.00756 81.0618 6.33496 81.5067 6.7581C81.9386 7.12142 82.2867 7.56918 82.5283 8.07212C82.7699 8.57507 82.8995 9.12188 82.9087 9.6768H90.2131V8.36496C90.2355 7.24746 90.0018 6.1391 89.529 5.1201C89.0562 4.10109 88.356 3.19695 87.4792 2.4731V2.4731Z" fill="#2A373D"/>
<path d="M126.552 18.2858C129.056 18.0513 131.403 16.9923 133.205 15.2839C134.047 14.5015 134.715 13.5586 135.167 12.514C135.619 11.4693 135.845 10.3453 135.832 9.21194C135.845 7.97933 135.579 6.75894 135.053 5.6379C134.526 4.51687 133.752 3.52282 132.785 2.72673C130.757 0.926635 128.097 -0.0485077 125.353 0.0018582H94.793V29.6348H102.081V18.3947H117.64L127.219 29.6394H135.435L125.213 18.4356L126.552 18.2858ZM102.081 12.9268V5.54244H124.517C125.051 5.49884 125.588 5.56753 126.092 5.74384C126.596 5.92015 127.055 6.19997 127.438 6.56426C127.83 6.89446 128.14 7.30755 128.343 7.77195C128.546 8.23634 128.637 8.73977 128.609 9.24373C128.625 9.74405 128.528 10.2417 128.325 10.7015C128.122 11.1614 127.818 11.5722 127.433 11.905C127.043 12.2593 126.584 12.5342 126.084 12.7135C125.583 12.8929 125.05 12.9731 124.517 12.9495L102.081 12.9268Z" fill="#2A373D"/>
</svg>
