<svg width="90" height="14" viewBox="0 0 90 14" fill="none" xmlns="http://www.w3.org/2000/svg">
<path d="M6.07031 1.92188L4.54688 5.03906L1.10156 5.53125C0.492188 5.625 0.257812 6.375 0.703125 6.82031L3.16406 9.23438L2.57812 12.6328C2.48438 13.2422 3.14062 13.7109 3.67969 13.4297L6.75 11.8125L9.79688 13.4297C10.3359 13.7109 10.9922 13.2422 10.8984 12.6328L10.3125 9.23438L12.7734 6.82031C13.2188 6.375 12.9844 5.625 12.375 5.53125L8.95312 5.03906L7.40625 1.92188C7.14844 1.38281 6.35156 1.35938 6.07031 1.92188Z" fill="#FF9000"/>
<path d="M25.0703 1.92188L23.5469 5.03906L20.1016 5.53125C19.4922 5.625 19.2578 6.375 19.7031 6.82031L22.1641 9.23438L21.5781 12.6328C21.4844 13.2422 22.1406 13.7109 22.6797 13.4297L25.75 11.8125L28.7969 13.4297C29.3359 13.7109 29.9922 13.2422 29.8984 12.6328L29.3125 9.23438L31.7734 6.82031C32.2188 6.375 31.9844 5.625 31.375 5.53125L27.9531 5.03906L26.4062 1.92188C26.1484 1.38281 25.3516 1.35938 25.0703 1.92188Z" fill="#FF9000"/>
<path d="M44.0703 1.92188L42.5469 5.03906L39.1016 5.53125C38.4922 5.625 38.2578 6.375 38.7031 6.82031L41.1641 9.23438L40.5781 12.6328C40.4844 13.2422 41.1406 13.7109 41.6797 13.4297L44.75 11.8125L47.7969 13.4297C48.3359 13.7109 48.9922 13.2422 48.8984 12.6328L48.3125 9.23438L50.7734 6.82031C51.2188 6.375 50.9844 5.625 50.375 5.53125L46.9531 5.03906L45.4062 1.92188C45.1484 1.38281 44.3516 1.35938 44.0703 1.92188Z" fill="#FF9000"/>
<path d="M63.0703 1.92188L61.5469 5.03906L58.1016 5.53125C57.4922 5.625 57.2578 6.375 57.7031 6.82031L60.1641 9.23438L59.5781 12.6328C59.4844 13.2422 60.1406 13.7109 60.6797 13.4297L63.75 11.8125L66.7969 13.4297C67.3359 13.7109 67.9922 13.2422 67.8984 12.6328L67.3125 9.23438L69.7734 6.82031C70.2188 6.375 69.9844 5.625 69.375 5.53125L65.9531 5.03906L64.4062 1.92188C64.1484 1.38281 63.3516 1.35938 63.0703 1.92188Z" fill="#FF9000"/>
<path d="M82.0703 1.92188L80.5469 5.03906L77.1016 5.53125C76.4922 5.625 76.2578 6.375 76.7031 6.82031L79.1641 9.23438L78.5781 12.6328C78.4844 13.2422 79.1406 13.7109 79.6797 13.4297L82.75 11.8125L85.7969 13.4297C86.3359 13.7109 86.9922 13.2422 86.8984 12.6328L86.3125 9.23438L88.7734 6.82031C89.2188 6.375 88.9844 5.625 88.375 5.53125L84.9531 5.03906L83.4062 1.92188C83.1484 1.38281 82.3516 1.35938 82.0703 1.92188Z" fill="#FF9000"/>
</svg>
