<svg width="650" height="762" viewBox="0 0 650 762" fill="none" xmlns="http://www.w3.org/2000/svg">
<g clip-path="url(#clip0_218_410)">
<path d="M594.078 260.84L594.078 260.841L700.217 366.42H649.181L568.539 286.32L568.185 285.969L567.833 286.322L554.746 299.433L554.745 299.434L478.686 375.398L478.686 375.398L441.616 412.474L441.615 412.474L339.586 514.388L339.939 514.742L339.586 514.388L302.481 551.464L283.946 569.984L123.295 730.507L123.295 730.508L112.435 741.393L112.434 741.394L93.2235 760.555H42.1857L60.6871 742.101L61.5433 741.247H60.334H0.5V136.991H144.699V173.032H37.1049H36.6049V173.532V704.672V705.172H37.1049H86.5437H87.0437V704.672V191.303L163.431 261.061L302.497 388.171L302.833 387.804L302.497 388.171L339.439 421.914V435.934L303.335 472.01V438.024V437.803L303.172 437.655L164.106 310.544L164.106 310.544L123.986 273.913L123.149 273.149V274.283V678.483V679.69L124.002 678.837L238.263 564.632L284.653 518.279L303.188 499.759L303.188 499.759L340.292 462.718L340.293 462.718L442.322 360.769L442.469 360.622V360.415V160.42V160.192L442.296 160.042L340.266 71.7187L339.439 71.0026V72.0967V395.433L303.172 362.34L303.172 362.34L164.268 235.378V136.719L303.162 16.434L303.162 16.4337L321.404 0.661253L339.612 16.4337L339.911 16.0883L339.612 16.4337L478.712 136.869L478.853 136.991H479.039H605.237V196.777V244.387L569.167 208.312V173.532V173.032H568.667H533.652H490.551H479.039H478.539V173.532V215.092V223.787V323.374V324.581L479.393 323.728L529.208 273.918L529.209 273.917L542.33 260.84L542.331 260.84L568.187 234.97L594.078 260.84Z" fill="white" stroke="#F1F1F1"/>
</g>
<defs>
<clipPath id="clip0_218_410">
<rect width="650" height="761.055" fill="white"/>
</clipPath>
</defs>
</svg>
