<svg width="60" height="54" viewBox="0 0 60 54" fill="none" xmlns="http://www.w3.org/2000/svg">
<rect x="0.5" width="28" height="28" fill="#FF9000" fill-opacity="0.9"/>
<path d="M35.2812 33.375C36.2969 34.3906 37.8594 34.1562 38.6406 33.375L46.2969 25.4062C48.7188 22.9062 49.1875 18.2969 45.8281 15.4844C42.8594 12.9062 38.875 14.0781 37 16.1094C35.0469 14.0781 31.0625 12.9062 28.0938 15.4844C24.7344 18.2969 25.2812 22.9062 27.625 25.4062L35.2812 33.375ZM30.4375 18.375C31.5312 17.4375 33.25 17.6719 34.2656 18.7656L37 21.5L39.6562 18.7656C40.6719 17.6719 42.3906 17.4375 43.4844 18.375C44.9688 19.625 44.7344 21.6562 43.7188 22.75L37 29.7031L30.2031 22.75C29.1875 21.6562 28.9531 19.625 30.4375 18.375ZM57.5469 38.375C55.125 36.3438 52.1562 37.125 50.6719 38.2969L45.9844 41.8125H45.6719C45.6719 38.8438 43.3281 36.5 40.2812 36.5H29.0312C26.8438 36.5 24.6562 37.2812 22.9375 38.6094L20.6719 40.25H15.75C15.0469 40.25 14.5 40.875 14.5 41.5V42.75C14.5 43.4531 15.0469 44 15.75 44H22L25.2031 41.5781C26.2969 40.7188 27.625 40.25 29.0312 40.25H40.2812C42.4688 40.25 42.5469 43.4531 40.2031 43.4531H35.5156C34.9688 43.4531 34.5 43.9219 34.5 44.4688V44.5469C34.5 45.0938 34.9688 45.5625 35.5156 45.5625H46.0625C46.8438 45.5625 47.5469 45.3281 48.1719 44.8594L52.9375 41.2656C53.5625 40.7969 54.5781 40.7969 55.125 41.2656C55.9844 41.9688 55.9062 43.0625 55.125 43.6875L47.2344 49.5469C46.6094 50.0156 45.9062 50.25 45.125 50.25H15.75C15.0469 50.25 14.5 50.875 14.5 51.5V52.75C14.5 53.4531 15.0469 54 15.75 54H45.125C46.6875 54 48.25 53.5312 49.5 52.5938L57.3125 46.6562C58.6406 45.7188 59.4219 44.2344 59.4219 42.5938C59.5 41.0312 58.7969 39.4688 57.5469 38.375Z" fill="#28353D"/>
</svg>
