<svg width="54" height="54" viewBox="0 0 54 54" fill="none" xmlns="http://www.w3.org/2000/svg">
<rect width="28" height="28" fill="#FF9000" fill-opacity="0.9"/>
<path d="M51.5 39C51.5 31.1094 46.1875 24.3906 39 22.2812V20.25C39 19.625 38.375 19 37.75 19H30.25C29.5469 19 29 19.625 29 20.25V22.2812C21.7344 24.3906 16.5 31.1094 16.5 39C15.0938 39 14 40.1719 14 41.5V46.5C14 47.9062 15.0938 49 16.5 49H51.5C52.8281 49 54 47.9062 54 46.5V41.5C54 40.1719 52.8281 39 51.5 39ZM27.4375 26.9688L28.7656 33.2969C28.9219 33.6875 29.3125 34 29.7031 34H30.5625C31.0312 34 31.5 33.6094 31.5 33.0625V22.75H36.5V33.0625C36.5 33.6094 36.8906 34 37.4375 34H38.2188C38.6094 34 39 33.6875 39.1562 33.2969L40.4844 26.9688C44.4688 29.0781 47.6719 34.5469 47.75 39H20.25C20.25 34.5469 23.4531 29.0781 27.4375 26.9688ZM50.25 45.25H17.75V42.75H50.25V45.25Z" fill="#28353D"/>
</svg>
