<svg width="55" height="54" viewBox="0 0 55 54" fill="none" xmlns="http://www.w3.org/2000/svg">
<rect width="28" height="28" fill="#FF9000" fill-opacity="0.9"/>
<path d="M53.1406 49.3906L18.6094 14.8594C18.0625 14.3125 17.3594 14 16.7344 14C15.3281 14 14 15.1719 14 16.8125V51.2656C14 52.8281 15.1719 54 16.7344 54H51.1875C53.6875 54 54.8594 51.1094 53.1406 49.3906ZM17.75 50.25V19.2344L22.6719 24.1562L21.7344 25.0156C21.2656 25.4844 21.2656 26.3438 21.7344 26.8125L22.6719 27.6719C23.1406 28.1406 23.9219 28.1406 24.3906 27.6719L25.3281 26.8125L28.8438 30.3281L27.9062 31.1875C27.4375 31.7344 27.4375 32.5156 27.9062 32.9844L28.8438 33.8438C29.3125 34.3906 30.0938 34.3906 30.5625 33.8438L31.5 32.9844L35.0156 36.5L34.1562 37.4375C33.6094 37.9062 33.6094 38.6875 34.1562 39.1562L35.0156 40.0938C35.4844 40.5625 36.2656 40.5625 36.8125 40.0938L37.6719 39.1562L41.1875 42.6719L40.3281 43.6094C39.8594 44.0781 39.8594 44.8594 40.3281 45.3281L41.1875 46.2656C41.6562 46.7344 42.5156 46.7344 42.9844 46.2656L43.8438 45.3281L48.7656 50.25H17.75ZM24 44H33.6875L24 34.3125V44Z" fill="#28353D"/>
</svg>
