<svg width="55" height="54" viewBox="0 0 55 54" fill="none" xmlns="http://www.w3.org/2000/svg">
<rect width="28" height="28" fill="#FF9000" fill-opacity="0.9"/>
<path d="M53.2188 42.8281L43.6094 33.2188L47.9844 28.8438L52.5156 24.3125C54.4688 22.3594 54.4688 19.2344 52.5156 17.2812L50.7188 15.4844C49.7812 14.5469 48.4531 14 47.2031 14C45.875 14 44.625 14.5469 43.6875 15.4844L39.1562 20.0156L34.7812 24.3906L31.9688 21.5L25.1719 14.7812C24.7031 14.3125 24.0781 14 23.4531 14C22.8281 14 22.2031 14.3125 21.7344 14.7812L14.7031 21.8125C13.6875 22.75 13.6875 24.3125 14.7031 25.25L22.5156 33.1406L24.3125 34.8594L15.4844 43.6875L14 52.125C13.8438 53.1406 14.625 54 15.6406 54C15.7188 54 15.7969 54 15.875 54L24.3125 52.5156L33.1406 43.6875L42.75 53.2969C43.2188 53.7656 43.8438 54 44.4688 54C45.0938 54 45.7188 53.7656 46.2656 53.2969L53.2188 46.2656C54.2344 45.3281 54.2344 43.7656 53.2188 42.8281ZM46.3438 18.1406C46.6562 17.8281 46.9688 17.75 47.2031 17.75C47.3594 17.75 47.75 17.8281 48.0625 18.1406L49.8594 19.9375C50.1719 20.25 50.1719 20.6406 50.1719 20.7969C50.1719 21.0312 50.1719 21.3438 49.8594 21.6562L45.7969 25.7188L42.2812 22.2031L46.3438 18.1406ZM25.1719 30.4844L18.2188 23.5312L23.4531 18.2969L26.5 21.3438L24.7812 23.0625C24.3125 23.5312 24.3125 24.3906 24.7812 24.8594L25.6406 25.7188C26.1094 26.1875 26.9688 26.1875 27.4375 25.7188L29.1562 24L29.3125 24.1562L32.125 27.0469L26.9688 32.2031L25.1719 30.4844ZM22.5156 49.0781L18.2188 49.7812L18.9219 45.4844L39.625 24.8594L43.1406 28.375L22.5156 49.0781ZM44.4688 49.7812L35.7969 41.0312L40.9531 35.875L44 38.8438L42.2812 40.5625C41.8125 41.0312 41.8125 41.8906 42.2812 42.3594L43.1406 43.2188C43.6094 43.6875 44.4688 43.6875 44.9375 43.2188L46.6562 41.5L49.7031 44.5469L44.4688 49.7812Z" fill="#28353D"/>
</svg>
